<mxfile host="app.diagrams.net" modified="2024-06-02T14:45:50.179Z" agent="Mozilla/5.0 (Windows NT 10.0; Win64; x64) AppleWebKit/537.36 (KHTML, like Gecko) Chrome/125.0.0.0 Safari/537.36 Edg/125.0.0.0" etag="Bqo0-5W6DrMu49Oynbyp" version="24.4.13" type="device" pages="3">
  <diagram name="AS IS" id="c7488fd3-1785-93aa-aadb-54a6760d102a">
    <mxGraphModel dx="1002" dy="577" grid="1" gridSize="10" guides="1" tooltips="1" connect="1" arrows="1" fold="1" page="1" pageScale="1" pageWidth="1100" pageHeight="850" background="none" math="0" shadow="0">
      <root>
        <mxCell id="0" />
        <mxCell id="1" parent="0" />
        <mxCell id="2b4e8129b02d487f-1" value="Доставка продуктов&amp;nbsp;«Сытый зайка»" style="swimlane;html=1;childLayout=stackLayout;horizontal=1;startSize=20;horizontalStack=0;rounded=0;shadow=0;labelBackgroundColor=none;strokeWidth=1;fontFamily=Verdana;fontSize=8;align=center;" parent="1" vertex="1">
          <mxGeometry x="70" y="497" width="1250" height="320" as="geometry" />
        </mxCell>
        <mxCell id="2b4e8129b02d487f-2" value="Оператор" style="swimlane;html=1;startSize=20;horizontal=0;" parent="2b4e8129b02d487f-1" vertex="1">
          <mxGeometry y="20" width="1250" height="150" as="geometry" />
        </mxCell>
        <mxCell id="2b4e8129b02d487f-20" style="edgeStyle=orthogonalEdgeStyle;rounded=0;html=1;labelBackgroundColor=none;startArrow=none;startFill=0;startSize=5;endArrow=classicThin;endFill=1;endSize=5;jettySize=auto;orthogonalLoop=1;strokeWidth=1;fontFamily=Verdana;fontSize=8" parent="2b4e8129b02d487f-2" edge="1">
          <mxGeometry relative="1" as="geometry">
            <mxPoint x="330.0000396354071" y="75.0344827586207" as="targetPoint" />
          </mxGeometry>
        </mxCell>
        <mxCell id="2b4e8129b02d487f-3" value="Курьер" style="swimlane;html=1;startSize=20;horizontal=0;" parent="2b4e8129b02d487f-1" vertex="1">
          <mxGeometry y="170" width="1250" height="150" as="geometry" />
        </mxCell>
        <mxCell id="JuGA9uo2uOLxQDSCTEVF-2" value="Покупатель" style="swimlane;startSize=20;horizontal=0;html=1;whiteSpace=wrap;strokeWidth=1;fillColor=none;" parent="1" vertex="1">
          <mxGeometry x="70" y="360" width="1250" height="120" as="geometry" />
        </mxCell>
        <mxCell id="JuGA9uo2uOLxQDSCTEVF-29" value="Заказ получен" style="points=[[0.145,0.145,0],[0.5,0,0],[0.855,0.145,0],[1,0.5,0],[0.855,0.855,0],[0.5,1,0],[0.145,0.855,0],[0,0.5,0]];shape=mxgraph.bpmn.event;html=1;verticalLabelPosition=bottom;labelBackgroundColor=#ffffff;verticalAlign=top;align=center;perimeter=ellipsePerimeter;outlineConnect=0;aspect=fixed;outline=end;symbol=terminate2;strokeWidth=1;fontSize=10;fillColor=none;" parent="JuGA9uo2uOLxQDSCTEVF-2" vertex="1">
          <mxGeometry x="1178" y="43.5" width="32" height="32" as="geometry" />
        </mxCell>
        <mxCell id="Usv9IhuviYST43XJOTmN-9" value="Заказ оформлен" style="points=[[0.145,0.145,0],[0.5,0,0],[0.855,0.145,0],[1,0.5,0],[0.855,0.855,0],[0.5,1,0],[0.145,0.855,0],[0,0.5,0]];shape=mxgraph.bpmn.event;html=1;verticalLabelPosition=bottom;labelBackgroundColor=#ffffff;verticalAlign=top;align=center;perimeter=ellipsePerimeter;outlineConnect=0;aspect=fixed;outline=standard;symbol=general;fontSize=10;" parent="JuGA9uo2uOLxQDSCTEVF-2" vertex="1">
          <mxGeometry x="50" y="39.25" width="41.5" height="41.5" as="geometry" />
        </mxCell>
        <mxCell id="7K3_q5ZA2IJRwI0mDJJV-9" value="" style="group" parent="1" vertex="1" connectable="0">
          <mxGeometry x="460" y="30" width="740" height="210" as="geometry" />
        </mxCell>
        <mxCell id="7K3_q5ZA2IJRwI0mDJJV-2" value="&lt;font style=&quot;font-size: 16px;&quot;&gt;Элементы для составления диаграммы&amp;nbsp;&lt;/font&gt;" style="rounded=0;whiteSpace=wrap;html=1;fontSize=20;align=center;verticalAlign=top;" parent="7K3_q5ZA2IJRwI0mDJJV-9" vertex="1">
          <mxGeometry x="-20" width="760" height="210" as="geometry" />
        </mxCell>
        <mxCell id="JuGA9uo2uOLxQDSCTEVF-17" value="Принять решение о замене или исключении товара" style="rounded=1;whiteSpace=wrap;html=1;shadow=0;labelBackgroundColor=none;strokeWidth=1;fontFamily=Verdana;fontSize=8;align=center;" parent="7K3_q5ZA2IJRwI0mDJJV-9" vertex="1">
          <mxGeometry y="159" width="90" height="37" as="geometry" />
        </mxCell>
        <mxCell id="7K3_q5ZA2IJRwI0mDJJV-4" value="&lt;font style=&quot;font-size: 12px;&quot;&gt;Промежуточные события:&lt;/font&gt;" style="text;html=1;strokeColor=none;fillColor=none;align=center;verticalAlign=middle;whiteSpace=wrap;rounded=0;fontSize=16;" parent="7K3_q5ZA2IJRwI0mDJJV-9" vertex="1">
          <mxGeometry x="21" y="30" width="159" height="30" as="geometry" />
        </mxCell>
        <mxCell id="JuGA9uo2uOLxQDSCTEVF-39" value="Решение по&lt;br&gt;&amp;nbsp;товарам" style="points=[[0.145,0.145,0],[0.5,0,0],[0.855,0.145,0],[1,0.5,0],[0.855,0.855,0],[0.5,1,0],[0.145,0.855,0],[0,0.5,0]];shape=mxgraph.bpmn.event;html=1;verticalLabelPosition=bottom;labelBackgroundColor=#ffffff;verticalAlign=top;align=center;perimeter=ellipsePerimeter;outlineConnect=0;aspect=fixed;outline=catching;symbol=message;strokeWidth=1;fontSize=10;fillColor=none;" parent="7K3_q5ZA2IJRwI0mDJJV-9" vertex="1">
          <mxGeometry x="29.5" y="61" width="39" height="39" as="geometry" />
        </mxCell>
        <mxCell id="7K3_q5ZA2IJRwI0mDJJV-5" value="&lt;font style=&quot;font-size: 12px;&quot;&gt;Действия:&lt;/font&gt;" style="text;html=1;strokeColor=none;fillColor=none;align=center;verticalAlign=middle;whiteSpace=wrap;rounded=0;fontSize=16;" parent="7K3_q5ZA2IJRwI0mDJJV-9" vertex="1">
          <mxGeometry x="20" y="129" width="60" height="30" as="geometry" />
        </mxCell>
        <mxCell id="7K3_q5ZA2IJRwI0mDJJV-6" value="&lt;font style=&quot;font-size: 12px;&quot;&gt;Шлюзы:&lt;/font&gt;" style="text;html=1;strokeColor=none;fillColor=none;align=center;verticalAlign=middle;whiteSpace=wrap;rounded=0;fontSize=16;" parent="7K3_q5ZA2IJRwI0mDJJV-9" vertex="1">
          <mxGeometry x="412" y="30" width="60" height="30" as="geometry" />
        </mxCell>
        <mxCell id="JuGA9uo2uOLxQDSCTEVF-9" value="&lt;font style=&quot;font-size: 10px;&quot;&gt;Все товары&lt;br&gt;есть в наличии?&lt;/font&gt;" style="points=[[0.25,0.25,0],[0.5,0,0],[0.75,0.25,0],[1,0.5,0],[0.75,0.75,0],[0.5,1,0],[0.25,0.75,0],[0,0.5,0]];shape=mxgraph.bpmn.gateway2;html=1;verticalLabelPosition=bottom;labelBackgroundColor=#ffffff;verticalAlign=top;align=center;perimeter=rhombusPerimeter;outlineConnect=0;outline=none;symbol=none;gwType=exclusive;strokeWidth=1;fillColor=none;" parent="7K3_q5ZA2IJRwI0mDJJV-9" vertex="1">
          <mxGeometry x="420" y="63.25" width="29" height="29" as="geometry" />
        </mxCell>
        <mxCell id="JuGA9uo2uOLxQDSCTEVF-21" value="Заменить товары?" style="points=[[0.25,0.25,0],[0.5,0,0],[0.75,0.25,0],[1,0.5,0],[0.75,0.75,0],[0.5,1,0],[0.25,0.75,0],[0,0.5,0]];shape=mxgraph.bpmn.gateway2;html=1;verticalLabelPosition=bottom;labelBackgroundColor=#ffffff;verticalAlign=top;align=center;perimeter=rhombusPerimeter;outlineConnect=0;outline=end;symbol=general;strokeWidth=1;fontSize=10;fillColor=none;" parent="7K3_q5ZA2IJRwI0mDJJV-9" vertex="1">
          <mxGeometry x="602" y="65.5" width="30" height="34.5" as="geometry" />
        </mxCell>
        <mxCell id="2b4e8129b02d487f-6" value="Проверить наличие всех товаров" style="rounded=1;whiteSpace=wrap;html=1;shadow=0;labelBackgroundColor=none;strokeWidth=1;fontFamily=Verdana;fontSize=8;align=center;" parent="7K3_q5ZA2IJRwI0mDJJV-9" vertex="1">
          <mxGeometry x="99" y="159" width="70" height="37" as="geometry" />
        </mxCell>
        <mxCell id="JuGA9uo2uOLxQDSCTEVF-11" value="Предложить замену товаров" style="rounded=1;whiteSpace=wrap;html=1;shadow=0;labelBackgroundColor=none;strokeWidth=1;fontFamily=Verdana;fontSize=8;align=center;" parent="7K3_q5ZA2IJRwI0mDJJV-9" vertex="1">
          <mxGeometry x="180" y="160" width="70" height="37" as="geometry" />
        </mxCell>
        <mxCell id="JuGA9uo2uOLxQDSCTEVF-20" value="Исключить товары из заказа" style="rounded=1;whiteSpace=wrap;html=1;shadow=0;labelBackgroundColor=none;strokeWidth=1;fontFamily=Verdana;fontSize=8;align=center;" parent="7K3_q5ZA2IJRwI0mDJJV-9" vertex="1">
          <mxGeometry x="260" y="160" width="70" height="37" as="geometry" />
        </mxCell>
        <mxCell id="JuGA9uo2uOLxQDSCTEVF-19" value="Заменить товары на выбранные" style="rounded=1;whiteSpace=wrap;html=1;shadow=0;labelBackgroundColor=none;strokeWidth=1;fontFamily=Verdana;fontSize=8;align=center;" parent="7K3_q5ZA2IJRwI0mDJJV-9" vertex="1">
          <mxGeometry x="340" y="160" width="70" height="37" as="geometry" />
        </mxCell>
        <mxCell id="7K3_q5ZA2IJRwI0mDJJV-8" value="Получить заказ" style="rounded=1;whiteSpace=wrap;html=1;shadow=0;labelBackgroundColor=none;strokeWidth=1;fontFamily=Verdana;fontSize=8;align=center;" parent="7K3_q5ZA2IJRwI0mDJJV-9" vertex="1">
          <mxGeometry x="420" y="160" width="70" height="37" as="geometry" />
        </mxCell>
        <mxCell id="JuGA9uo2uOLxQDSCTEVF-10" value="Собрать заказ" style="rounded=1;whiteSpace=wrap;html=1;shadow=0;labelBackgroundColor=none;strokeWidth=1;fontFamily=Verdana;fontSize=8;align=center;" parent="7K3_q5ZA2IJRwI0mDJJV-9" vertex="1">
          <mxGeometry x="500" y="160" width="70" height="37" as="geometry" />
        </mxCell>
        <mxCell id="JuGA9uo2uOLxQDSCTEVF-26" value="Доставить заказ" style="rounded=1;whiteSpace=wrap;html=1;shadow=0;labelBackgroundColor=none;strokeWidth=1;fontFamily=Verdana;fontSize=8;align=center;" parent="7K3_q5ZA2IJRwI0mDJJV-9" vertex="1">
          <mxGeometry x="580" y="160" width="70" height="37" as="geometry" />
        </mxCell>
        <mxCell id="Usv9IhuviYST43XJOTmN-3" value="&lt;span style=&quot;font-size: 10px;&quot;&gt;Покупатель взял &lt;br&gt;трубку?&lt;/span&gt;" style="points=[[0.25,0.25,0],[0.5,0,0],[0.75,0.25,0],[1,0.5,0],[0.75,0.75,0],[0.5,1,0],[0.25,0.75,0],[0,0.5,0]];shape=mxgraph.bpmn.gateway2;html=1;verticalLabelPosition=bottom;labelBackgroundColor=#ffffff;verticalAlign=top;align=center;perimeter=rhombusPerimeter;outlineConnect=0;outline=none;symbol=none;gwType=exclusive;strokeWidth=1;fillColor=none;" parent="7K3_q5ZA2IJRwI0mDJJV-9" vertex="1">
          <mxGeometry x="512" y="66.5" width="29" height="29" as="geometry" />
        </mxCell>
        <mxCell id="Usv9IhuviYST43XJOTmN-4" value="" style="points=[[0.25,0.25,0],[0.5,0,0],[0.75,0.25,0],[1,0.5,0],[0.75,0.75,0],[0.5,1,0],[0.25,0.75,0],[0,0.5,0]];shape=mxgraph.bpmn.gateway2;html=1;verticalLabelPosition=bottom;labelBackgroundColor=#ffffff;verticalAlign=top;align=center;perimeter=rhombusPerimeter;outlineConnect=0;outline=none;symbol=none;gwType=exclusive;strokeWidth=1;fillColor=none;" parent="7K3_q5ZA2IJRwI0mDJJV-9" vertex="1">
          <mxGeometry x="461" y="65.5" width="29" height="29" as="geometry" />
        </mxCell>
        <mxCell id="Usv9IhuviYST43XJOTmN-5" value="" style="points=[[0.25,0.25,0],[0.5,0,0],[0.75,0.25,0],[1,0.5,0],[0.75,0.75,0],[0.5,1,0],[0.25,0.75,0],[0,0.5,0]];shape=mxgraph.bpmn.gateway2;html=1;verticalLabelPosition=bottom;labelBackgroundColor=#ffffff;verticalAlign=top;align=center;perimeter=rhombusPerimeter;outlineConnect=0;outline=none;symbol=none;gwType=exclusive;strokeWidth=1;fillColor=none;" parent="7K3_q5ZA2IJRwI0mDJJV-9" vertex="1">
          <mxGeometry x="553" y="66" width="29" height="29" as="geometry" />
        </mxCell>
        <mxCell id="Usv9IhuviYST43XJOTmN-7" value="" style="points=[[0.25,0.25,0],[0.5,0,0],[0.75,0.25,0],[1,0.5,0],[0.75,0.75,0],[0.5,1,0],[0.25,0.75,0],[0,0.5,0]];shape=mxgraph.bpmn.gateway2;html=1;verticalLabelPosition=bottom;labelBackgroundColor=#ffffff;verticalAlign=top;align=center;perimeter=rhombusPerimeter;outlineConnect=0;outline=end;symbol=general;strokeWidth=1;fontSize=10;fillColor=none;" parent="7K3_q5ZA2IJRwI0mDJJV-9" vertex="1">
          <mxGeometry x="639.5" y="67" width="30.5" height="28.5" as="geometry" />
        </mxCell>
        <mxCell id="Usv9IhuviYST43XJOTmN-13" value="Звонок для&amp;nbsp;&lt;br style=&quot;border-color: var(--border-color);&quot;&gt;&lt;font style=&quot;border-color: var(--border-color);&quot;&gt;замены товаров&lt;/font&gt;" style="points=[[0.145,0.145,0],[0.5,0,0],[0.855,0.145,0],[1,0.5,0],[0.855,0.855,0],[0.5,1,0],[0.145,0.855,0],[0,0.5,0]];shape=mxgraph.bpmn.event;html=1;verticalLabelPosition=bottom;labelBackgroundColor=#ffffff;verticalAlign=top;align=center;perimeter=ellipsePerimeter;outlineConnect=0;aspect=fixed;outline=catching;symbol=message;fontSize=10;" parent="7K3_q5ZA2IJRwI0mDJJV-9" vertex="1">
          <mxGeometry x="99" y="63.25" width="37.5" height="37.5" as="geometry" />
        </mxCell>
        <mxCell id="Usv9IhuviYST43XJOTmN-12" value="Заказ готов" style="points=[[0.145,0.145,0],[0.5,0,0],[0.855,0.145,0],[1,0.5,0],[0.855,0.855,0],[0.5,1,0],[0.145,0.855,0],[0,0.5,0]];shape=mxgraph.bpmn.event;html=1;verticalLabelPosition=bottom;labelBackgroundColor=#ffffff;verticalAlign=top;align=center;perimeter=ellipsePerimeter;outlineConnect=0;aspect=fixed;outline=catching;symbol=message;fontSize=10;" parent="7K3_q5ZA2IJRwI0mDJJV-9" vertex="1">
          <mxGeometry x="169" y="62" width="40" height="40" as="geometry" />
        </mxCell>
        <mxCell id="Usv9IhuviYST43XJOTmN-14" value="Поступил новый&lt;br style=&quot;border-color: var(--border-color);&quot;&gt;заказ" style="points=[[0.145,0.145,0],[0.5,0,0],[0.855,0.145,0],[1,0.5,0],[0.855,0.855,0],[0.5,1,0],[0.145,0.855,0],[0,0.5,0]];shape=mxgraph.bpmn.event;html=1;verticalLabelPosition=bottom;labelBackgroundColor=#ffffff;verticalAlign=top;align=center;perimeter=ellipsePerimeter;outlineConnect=0;aspect=fixed;outline=catching;symbol=message;fontSize=10;" parent="7K3_q5ZA2IJRwI0mDJJV-9" vertex="1">
          <mxGeometry x="240" y="60.75" width="41" height="41" as="geometry" />
        </mxCell>
        <mxCell id="M19Zvm760lLPR7ln0LaB-6" value="Позвонить покупателю" style="rounded=1;whiteSpace=wrap;html=1;shadow=0;labelBackgroundColor=none;strokeWidth=1;fontFamily=Verdana;fontSize=8;align=center;" parent="7K3_q5ZA2IJRwI0mDJJV-9" vertex="1">
          <mxGeometry x="662" y="160" width="70" height="37" as="geometry" />
        </mxCell>
        <mxCell id="7K3_q5ZA2IJRwI0mDJJV-10" value="&lt;p style=&quot;line-height: 80%;&quot;&gt;&lt;/p&gt;&lt;h1 style=&quot;line-height: 0%;&quot;&gt;&lt;font style=&quot;font-size: 10px;&quot;&gt;Задание:&lt;/font&gt;&lt;/h1&gt;&lt;font style=&quot;font-size: 10px;&quot;&gt;Подготовить модель AS IS процесса «Формирование заказа в доставке продуктов “Сытый зайка”» в нотации BPMN&lt;br&gt;&lt;/font&gt;&lt;p style=&quot;font-size: 10px;&quot;&gt;&lt;font style=&quot;font-size: 10px;&quot;&gt;Как выполнить задание:&lt;/font&gt;&lt;/p&gt;&lt;p style=&quot;font-size: 10px;&quot;&gt;&lt;font style=&quot;font-size: 10px;&quot;&gt;1. Просмотрите пулы и события, уже добавленные на диаграмму.&lt;/font&gt;&lt;/p&gt;&lt;p style=&quot;font-size: 10px;&quot;&gt;&lt;font style=&quot;font-size: 10px;&quot;&gt;2. Просмотрите доступные элементы для дополнения представленной диаграммы. Каждый элемент должен быть использован только один раз.&lt;/font&gt;&lt;/p&gt;&lt;p style=&quot;font-size: 10px;&quot;&gt;&lt;font style=&quot;font-size: 10px;&quot;&gt;3. Внимательно изучите интервью, на основании этого корректно дополните диаграмму, расставив в правильной последовательности доступные элементы .&lt;/font&gt;&lt;/p&gt;&lt;p style=&quot;font-size: 10px;&quot;&gt;&lt;span style=&quot;background-color: initial;&quot;&gt;&lt;font style=&quot;font-size: 10px;&quot;&gt;4. Далее изобразите потоки в том процессе, который вы дополнили.&amp;nbsp;&lt;/font&gt;&lt;/span&gt;&lt;/p&gt;&lt;p style=&quot;font-size: 10px;&quot;&gt;&lt;font style=&quot;font-size: 10px;&quot;&gt;&lt;i style=&quot;background-color: initial;&quot;&gt;Помните, что вы всегда можете оставить дополнительную информацию со своими размышлениями ревьюеру в виде пометок.&amp;nbsp;&amp;nbsp;&lt;/i&gt;&lt;br&gt;&lt;/font&gt;&lt;/p&gt;&lt;p style=&quot;font-size: 10px;&quot;&gt;&lt;font style=&quot;font-size: 10px;&quot;&gt;7. Когда диаграмма AS IS будет готова, переходите к вкладке №2 для составления диаграммы TO BE.&lt;/font&gt;&lt;/p&gt;&lt;p&gt;&lt;/p&gt;" style="text;html=1;strokeColor=#82b366;fillColor=#d5e8d4;spacing=5;spacingTop=-20;whiteSpace=wrap;overflow=hidden;rounded=0;fontSize=16;" parent="1" vertex="1">
          <mxGeometry x="10" y="10" width="390" height="300" as="geometry" />
        </mxCell>
      </root>
    </mxGraphModel>
  </diagram>
  <diagram name="TO BE" id="zTSeFMvEAtbdspOOw4vk">
    <mxGraphModel dx="1002" dy="577" grid="1" gridSize="10" guides="1" tooltips="1" connect="1" arrows="1" fold="1" page="1" pageScale="1" pageWidth="1100" pageHeight="850" background="none" math="0" shadow="0">
      <root>
        <mxCell id="Q_dvvYHVvzNDzxO9pVw5-0" />
        <mxCell id="Q_dvvYHVvzNDzxO9pVw5-1" parent="Q_dvvYHVvzNDzxO9pVw5-0" />
        <mxCell id="Q_dvvYHVvzNDzxO9pVw5-2" value="Доставка продуктов&amp;nbsp;«Сытый зайка»" style="swimlane;html=1;childLayout=stackLayout;horizontal=1;startSize=20;horizontalStack=0;rounded=0;shadow=0;labelBackgroundColor=none;strokeWidth=1;fontFamily=Verdana;fontSize=8;align=center;" parent="Q_dvvYHVvzNDzxO9pVw5-1" vertex="1">
          <mxGeometry x="70" y="460" width="1780" height="340" as="geometry" />
        </mxCell>
        <mxCell id="Q_dvvYHVvzNDzxO9pVw5-3" value="Оператор" style="swimlane;html=1;startSize=20;horizontal=0;" parent="Q_dvvYHVvzNDzxO9pVw5-2" vertex="1">
          <mxGeometry y="20" width="1780" height="170" as="geometry" />
        </mxCell>
        <mxCell id="Q_dvvYHVvzNDzxO9pVw5-6" style="edgeStyle=orthogonalEdgeStyle;rounded=0;html=1;labelBackgroundColor=none;startArrow=none;startFill=0;startSize=5;endArrow=classicThin;endFill=1;endSize=5;jettySize=auto;orthogonalLoop=1;strokeWidth=1;fontFamily=Verdana;fontSize=8" parent="Q_dvvYHVvzNDzxO9pVw5-3" edge="1">
          <mxGeometry relative="1" as="geometry">
            <mxPoint x="330.0000396354071" y="75.0344827586207" as="targetPoint" />
          </mxGeometry>
        </mxCell>
        <mxCell id="Q_dvvYHVvzNDzxO9pVw5-29" value="Курьер" style="swimlane;html=1;startSize=20;horizontal=0;" parent="Q_dvvYHVvzNDzxO9pVw5-2" vertex="1">
          <mxGeometry y="190" width="1780" height="150" as="geometry" />
        </mxCell>
        <mxCell id="Q_dvvYHVvzNDzxO9pVw5-36" value="Покупатель" style="swimlane;startSize=20;horizontal=0;html=1;whiteSpace=wrap;strokeWidth=1;fillColor=none;" parent="Q_dvvYHVvzNDzxO9pVw5-1" vertex="1">
          <mxGeometry x="70" y="276" width="1780" height="156" as="geometry" />
        </mxCell>
        <mxCell id="HyHTF2Xi3SCH2UTWUuMY-0" value="Заказ сформирован" style="points=[[0.145,0.145,0],[0.5,0,0],[0.855,0.145,0],[1,0.5,0],[0.855,0.855,0],[0.5,1,0],[0.145,0.855,0],[0,0.5,0]];shape=mxgraph.bpmn.event;html=1;verticalLabelPosition=bottom;labelBackgroundColor=#ffffff;verticalAlign=top;align=center;perimeter=ellipsePerimeter;outlineConnect=0;aspect=fixed;outline=standard;symbol=general;strokeWidth=1;fontSize=10;fillColor=none;" parent="Q_dvvYHVvzNDzxO9pVw5-36" vertex="1">
          <mxGeometry x="50" y="40" width="40" height="40" as="geometry" />
        </mxCell>
        <mxCell id="Q_dvvYHVvzNDzxO9pVw5-43" value="Заказ получен" style="points=[[0.145,0.145,0],[0.5,0,0],[0.855,0.145,0],[1,0.5,0],[0.855,0.855,0],[0.5,1,0],[0.145,0.855,0],[0,0.5,0]];shape=mxgraph.bpmn.event;html=1;verticalLabelPosition=bottom;labelBackgroundColor=#ffffff;verticalAlign=top;align=center;perimeter=ellipsePerimeter;outlineConnect=0;aspect=fixed;outline=end;symbol=terminate2;strokeWidth=1;fontSize=10;fillColor=none;" parent="Q_dvvYHVvzNDzxO9pVw5-1" vertex="1">
          <mxGeometry x="1790" y="319.5" width="32" height="32" as="geometry" />
        </mxCell>
        <mxCell id="FH6jZZN8fmCdFcVaPBdx-0" value="&lt;p style=&quot;line-height: 80%;&quot;&gt;&lt;/p&gt;&lt;h1 style=&quot;line-height: 0%;&quot;&gt;&lt;font style=&quot;font-size: 10px;&quot;&gt;Задание:&lt;/font&gt;&lt;/h1&gt;&lt;font style=&quot;font-size: 10px;&quot;&gt;Подготовить модель TO BE процесса «Формирование заказа в доставке продуктов “Сытый зайка”» в нотации BPMN&lt;br&gt;&lt;/font&gt;&lt;p style=&quot;font-size: 10px; line-height: 60%;&quot;&gt;&lt;font style=&quot;font-size: 10px;&quot;&gt;Как выполнить задание:&lt;/font&gt;&lt;/p&gt;&lt;p style=&quot;font-size: 10px; line-height: 100%;&quot;&gt;&lt;font style=&quot;font-size: 10px;&quot;&gt;1.&amp;nbsp;&lt;/font&gt;Возьмите за основу диаграмму процесса AS IS на вкладке №1. Пулы и дорожки в диаграммах AS-IS и TO-BE не должны отличаться.&lt;/p&gt;&lt;p style=&quot;font-size: 10px; line-height: 100%;&quot;&gt;&lt;span style=&quot;background-color: initial;&quot;&gt;2. Вам необходимо составить диаграмму TO BE, при этом учесть добавление в приложение новой функции для выбора решения по отсутствующим товарам.&lt;/span&gt;&lt;/p&gt;&lt;p style=&quot;border-color: var(--border-color); font-size: 10px;&quot;&gt;&lt;font style=&quot;border-color: var(--border-color); font-size: 10px;&quot;&gt;3. В этой части задания у вас нет доступных элементов, вы создаете их самостоятельно&amp;nbsp;&lt;/font&gt;&lt;/p&gt;&lt;p style=&quot;border-color: var(--border-color); font-size: 10px;&quot;&gt;&lt;font style=&quot;border-color: var(--border-color); font-size: 10px;&quot;&gt;4. Готовый файл со всеми вкладками сохраните в формате .drawio и отправьте ревьюеру на проверку.&lt;/font&gt;&lt;/p&gt;&lt;p&gt;&lt;/p&gt;" style="text;html=1;strokeColor=#82b366;fillColor=#d5e8d4;spacing=5;spacingTop=-20;whiteSpace=wrap;overflow=hidden;rounded=0;fontSize=16;" parent="Q_dvvYHVvzNDzxO9pVw5-1" vertex="1">
          <mxGeometry x="10" y="10" width="490" height="240" as="geometry" />
        </mxCell>
      </root>
    </mxGraphModel>
  </diagram>
  <diagram id="a_MtQb8EIC7jTFKh7wlv" name="BPMN заметки">
    <mxGraphModel dx="1002" dy="577" grid="1" gridSize="10" guides="1" tooltips="1" connect="1" arrows="1" fold="1" page="1" pageScale="1" pageWidth="827" pageHeight="1169" math="0" shadow="0">
      <root>
        <mxCell id="0" />
        <mxCell id="1" parent="0" />
        <mxCell id="2qwUaoLeyyZQ_1UiVwgS-4" value="" style="edgeStyle=elbowEdgeStyle;fontSize=12;html=1;endArrow=blockThin;endFill=1;rounded=0;" parent="1" edge="1">
          <mxGeometry width="160" relative="1" as="geometry">
            <mxPoint x="400" y="120" as="sourcePoint" />
            <mxPoint x="520" y="120" as="targetPoint" />
          </mxGeometry>
        </mxCell>
        <mxCell id="2qwUaoLeyyZQ_1UiVwgS-6" value="" style="points=[[0.25,0,0],[0.5,0,0],[0.75,0,0],[1,0.25,0],[1,0.5,0],[1,0.75,0],[0.75,1,0],[0.5,1,0],[0.25,1,0],[0,0.75,0],[0,0.5,0],[0,0.25,0]];shape=mxgraph.bpmn.task;whiteSpace=wrap;rectStyle=rounded;size=10;html=1;taskMarker=abstract;fontSize=16;" parent="1" vertex="1">
          <mxGeometry x="20" y="190" width="90" height="50" as="geometry" />
        </mxCell>
        <mxCell id="2qwUaoLeyyZQ_1UiVwgS-7" value="" style="points=[[0.25,0,0],[0.5,0,0],[0.75,0,0],[1,0.25,0],[1,0.5,0],[1,0.75,0],[0.75,1,0],[0.5,1,0],[0.25,1,0],[0,0.75,0],[0,0.5,0],[0,0.25,0]];shape=mxgraph.bpmn.task;whiteSpace=wrap;rectStyle=rounded;size=10;html=1;taskMarker=abstract;isLoopSub=1;fontSize=16;" parent="1" vertex="1">
          <mxGeometry x="20" y="270" width="90" height="50" as="geometry" />
        </mxCell>
        <mxCell id="2qwUaoLeyyZQ_1UiVwgS-8" value="" style="points=[[0.145,0.145,0],[0.5,0,0],[0.855,0.145,0],[1,0.5,0],[0.855,0.855,0],[0.5,1,0],[0.145,0.855,0],[0,0.5,0]];shape=mxgraph.bpmn.event;html=1;verticalLabelPosition=bottom;labelBackgroundColor=#ffffff;verticalAlign=top;align=center;perimeter=ellipsePerimeter;outlineConnect=0;aspect=fixed;outline=standard;symbol=general;fontSize=16;" parent="1" vertex="1">
          <mxGeometry x="401" y="190" width="50" height="50" as="geometry" />
        </mxCell>
        <mxCell id="2qwUaoLeyyZQ_1UiVwgS-9" value="" style="points=[[0.145,0.145,0],[0.5,0,0],[0.855,0.145,0],[1,0.5,0],[0.855,0.855,0],[0.5,1,0],[0.145,0.855,0],[0,0.5,0]];shape=mxgraph.bpmn.event;html=1;verticalLabelPosition=bottom;labelBackgroundColor=#ffffff;verticalAlign=top;align=center;perimeter=ellipsePerimeter;outlineConnect=0;aspect=fixed;outline=throwing;symbol=general;fontSize=16;" parent="1" vertex="1">
          <mxGeometry x="401" y="270" width="50" height="50" as="geometry" />
        </mxCell>
        <mxCell id="2qwUaoLeyyZQ_1UiVwgS-10" value="" style="points=[[0.145,0.145,0],[0.5,0,0],[0.855,0.145,0],[1,0.5,0],[0.855,0.855,0],[0.5,1,0],[0.145,0.855,0],[0,0.5,0]];shape=mxgraph.bpmn.event;html=1;verticalLabelPosition=bottom;labelBackgroundColor=#ffffff;verticalAlign=top;align=center;perimeter=ellipsePerimeter;outlineConnect=0;aspect=fixed;outline=end;symbol=terminate2;fontSize=16;" parent="1" vertex="1">
          <mxGeometry x="401" y="350" width="50" height="50" as="geometry" />
        </mxCell>
        <mxCell id="2qwUaoLeyyZQ_1UiVwgS-11" value="" style="points=[[0.145,0.145,0],[0.5,0,0],[0.855,0.145,0],[1,0.5,0],[0.855,0.855,0],[0.5,1,0],[0.145,0.855,0],[0,0.5,0]];shape=mxgraph.bpmn.event;html=1;verticalLabelPosition=bottom;labelBackgroundColor=#ffffff;verticalAlign=top;align=center;perimeter=ellipsePerimeter;outlineConnect=0;aspect=fixed;outline=throwing;symbol=message;fontSize=16;" parent="1" vertex="1">
          <mxGeometry x="401" y="430" width="50" height="50" as="geometry" />
        </mxCell>
        <mxCell id="2qwUaoLeyyZQ_1UiVwgS-12" value="" style="points=[[0.145,0.145,0],[0.5,0,0],[0.855,0.145,0],[1,0.5,0],[0.855,0.855,0],[0.5,1,0],[0.145,0.855,0],[0,0.5,0]];shape=mxgraph.bpmn.event;html=1;verticalLabelPosition=bottom;labelBackgroundColor=#ffffff;verticalAlign=top;align=center;perimeter=ellipsePerimeter;outlineConnect=0;aspect=fixed;outline=standard;symbol=timer;fontSize=16;" parent="1" vertex="1">
          <mxGeometry x="401" y="510" width="50" height="50" as="geometry" />
        </mxCell>
        <mxCell id="2qwUaoLeyyZQ_1UiVwgS-13" value="" style="points=[[0.25,0.25,0],[0.5,0,0],[0.75,0.25,0],[1,0.5,0],[0.75,0.75,0],[0.5,1,0],[0.25,0.75,0],[0,0.5,0]];shape=mxgraph.bpmn.gateway2;html=1;verticalLabelPosition=bottom;labelBackgroundColor=#ffffff;verticalAlign=top;align=center;perimeter=rhombusPerimeter;outlineConnect=0;outline=none;symbol=none;gwType=exclusive;fontSize=16;" parent="1" vertex="1">
          <mxGeometry x="41" y="438" width="50" height="50" as="geometry" />
        </mxCell>
        <mxCell id="2qwUaoLeyyZQ_1UiVwgS-14" value="" style="points=[[0.25,0.25,0],[0.5,0,0],[0.75,0.25,0],[1,0.5,0],[0.75,0.75,0],[0.5,1,0],[0.25,0.75,0],[0,0.5,0]];shape=mxgraph.bpmn.gateway2;html=1;verticalLabelPosition=bottom;labelBackgroundColor=#ffffff;verticalAlign=top;align=center;perimeter=rhombusPerimeter;outlineConnect=0;outline=end;symbol=general;fontSize=16;" parent="1" vertex="1">
          <mxGeometry x="41" y="518" width="50" height="50" as="geometry" />
        </mxCell>
        <mxCell id="2qwUaoLeyyZQ_1UiVwgS-15" value="" style="points=[[0.25,0.25,0],[0.5,0,0],[0.75,0.25,0],[1,0.5,0],[0.75,0.75,0],[0.5,1,0],[0.25,0.75,0],[0,0.5,0]];shape=mxgraph.bpmn.gateway2;html=1;verticalLabelPosition=bottom;labelBackgroundColor=#ffffff;verticalAlign=top;align=center;perimeter=rhombusPerimeter;outlineConnect=0;outline=none;symbol=none;gwType=parallel;fontSize=16;" parent="1" vertex="1">
          <mxGeometry x="41" y="598" width="50" height="50" as="geometry" />
        </mxCell>
        <mxCell id="2qwUaoLeyyZQ_1UiVwgS-16" value="&lt;h1&gt;&lt;b style=&quot;border-color: var(--border-color);&quot;&gt;&lt;font style=&quot;font-size: 18px;&quot;&gt;BPMN. Наиболее распространенные элементы&lt;/font&gt;&lt;/b&gt;&lt;br&gt;&lt;/h1&gt;" style="text;html=1;strokeColor=none;fillColor=none;spacing=5;spacingTop=-20;whiteSpace=wrap;overflow=hidden;rounded=0;fontSize=16;align=center;" parent="1" vertex="1">
          <mxGeometry x="188" y="10" width="451" height="60" as="geometry" />
        </mxCell>
        <mxCell id="2qwUaoLeyyZQ_1UiVwgS-17" value="- начальное событие" style="text;html=1;strokeColor=none;fillColor=none;align=left;verticalAlign=middle;whiteSpace=wrap;rounded=0;fontSize=16;" parent="1" vertex="1">
          <mxGeometry x="471" y="200" width="230" height="30" as="geometry" />
        </mxCell>
        <mxCell id="2qwUaoLeyyZQ_1UiVwgS-18" value="- промежуточное событие" style="text;html=1;strokeColor=none;fillColor=none;align=left;verticalAlign=middle;whiteSpace=wrap;rounded=0;fontSize=16;" parent="1" vertex="1">
          <mxGeometry x="471" y="280" width="250" height="30" as="geometry" />
        </mxCell>
        <mxCell id="2qwUaoLeyyZQ_1UiVwgS-19" value="- конечное событие" style="text;html=1;strokeColor=none;fillColor=none;align=left;verticalAlign=middle;whiteSpace=wrap;rounded=0;fontSize=16;" parent="1" vertex="1">
          <mxGeometry x="471" y="360" width="170" height="30" as="geometry" />
        </mxCell>
        <mxCell id="2qwUaoLeyyZQ_1UiVwgS-20" value="- сообщение" style="text;html=1;strokeColor=none;fillColor=none;align=left;verticalAlign=middle;whiteSpace=wrap;rounded=0;fontSize=16;" parent="1" vertex="1">
          <mxGeometry x="471" y="440" width="170" height="30" as="geometry" />
        </mxCell>
        <mxCell id="2qwUaoLeyyZQ_1UiVwgS-21" value="- таймер" style="text;html=1;strokeColor=none;fillColor=none;align=left;verticalAlign=middle;whiteSpace=wrap;rounded=0;fontSize=16;" parent="1" vertex="1">
          <mxGeometry x="471" y="520" width="170" height="30" as="geometry" />
        </mxCell>
        <mxCell id="eJI23vzdxuldbTUaO5t--1" value="- задача" style="text;html=1;strokeColor=none;fillColor=none;align=left;verticalAlign=middle;whiteSpace=wrap;rounded=0;fontSize=16;" parent="1" vertex="1">
          <mxGeometry x="120" y="200" width="230" height="30" as="geometry" />
        </mxCell>
        <mxCell id="eJI23vzdxuldbTUaO5t--2" value="- свёрнутый подпроцесс" style="text;html=1;strokeColor=none;fillColor=none;align=left;verticalAlign=middle;whiteSpace=wrap;rounded=0;fontSize=16;" parent="1" vertex="1">
          <mxGeometry x="120" y="280" width="230" height="30" as="geometry" />
        </mxCell>
        <mxCell id="eJI23vzdxuldbTUaO5t--3" value="" style="points=[[0.25,0,0],[0.5,0,0],[0.75,0,0],[1,0.25,0],[1,0.5,0],[1,0.75,0],[0.75,1,0],[0.5,1,0],[0.25,1,0],[0,0.75,0],[0,0.5,0],[0,0.25,0]];shape=mxgraph.bpmn.task;whiteSpace=wrap;rectStyle=rounded;size=10;html=1;taskMarker=abstract;isLoopStandard=1;fontSize=18;" parent="1" vertex="1">
          <mxGeometry x="20" y="350" width="90" height="50" as="geometry" />
        </mxCell>
        <mxCell id="eJI23vzdxuldbTUaO5t--4" value="- циклическое действие" style="text;html=1;strokeColor=none;fillColor=none;align=left;verticalAlign=middle;whiteSpace=wrap;rounded=0;fontSize=16;" parent="1" vertex="1">
          <mxGeometry x="120" y="360" width="230" height="30" as="geometry" />
        </mxCell>
        <mxCell id="eJI23vzdxuldbTUaO5t--5" value="" style="dashed=1;dashPattern=8 4;endArrow=blockThin;endFill=1;startArrow=oval;startFill=0;endSize=6;startSize=4;html=1;rounded=0;fontSize=18;" parent="1" edge="1">
          <mxGeometry width="160" relative="1" as="geometry">
            <mxPoint x="400" y="80" as="sourcePoint" />
            <mxPoint x="520" y="80.5" as="targetPoint" />
          </mxGeometry>
        </mxCell>
        <mxCell id="eJI23vzdxuldbTUaO5t--6" value="- поток сообщений" style="text;html=1;strokeColor=none;fillColor=none;align=left;verticalAlign=middle;whiteSpace=wrap;rounded=0;fontSize=16;" parent="1" vertex="1">
          <mxGeometry x="540" y="70" width="230" height="30" as="geometry" />
        </mxCell>
        <mxCell id="eJI23vzdxuldbTUaO5t--7" value="- поток последовательности" style="text;html=1;strokeColor=none;fillColor=none;align=left;verticalAlign=middle;whiteSpace=wrap;rounded=0;fontSize=16;" parent="1" vertex="1">
          <mxGeometry x="540" y="103" width="250" height="30" as="geometry" />
        </mxCell>
        <mxCell id="eJI23vzdxuldbTUaO5t--8" value="" style="edgeStyle=elbowEdgeStyle;fontSize=12;html=1;endFill=0;startFill=0;endSize=6;startSize=6;dashed=1;dashPattern=1 4;endArrow=none;startArrow=none;rounded=0;" parent="1" edge="1">
          <mxGeometry width="160" relative="1" as="geometry">
            <mxPoint x="400" y="157" as="sourcePoint" />
            <mxPoint x="520" y="157" as="targetPoint" />
          </mxGeometry>
        </mxCell>
        <mxCell id="eJI23vzdxuldbTUaO5t--9" value="- ассоциация" style="text;html=1;strokeColor=none;fillColor=none;align=left;verticalAlign=middle;whiteSpace=wrap;rounded=0;fontSize=16;" parent="1" vertex="1">
          <mxGeometry x="540" y="141" width="250" height="30" as="geometry" />
        </mxCell>
        <mxCell id="eJI23vzdxuldbTUaO5t--10" value="- исключающий шлюз&amp;nbsp; &amp;nbsp; &amp;nbsp;&lt;br&gt;&amp;nbsp; (ИЛИ/ИЛИ)" style="text;html=1;strokeColor=none;fillColor=none;align=left;verticalAlign=middle;whiteSpace=wrap;rounded=0;fontSize=16;" parent="1" vertex="1">
          <mxGeometry x="120" y="450" width="230" height="30" as="geometry" />
        </mxCell>
        <mxCell id="eJI23vzdxuldbTUaO5t--11" value="- включающий шлюз&amp;nbsp; &lt;br style=&quot;font-size: 16px;&quot;&gt;&amp;nbsp; (И/ИЛИ)" style="text;html=1;strokeColor=none;fillColor=none;align=left;verticalAlign=middle;whiteSpace=wrap;rounded=0;fontSize=16;" parent="1" vertex="1">
          <mxGeometry x="120" y="530" width="230" height="30" as="geometry" />
        </mxCell>
        <mxCell id="eJI23vzdxuldbTUaO5t--12" value="- параллельный шлюз&amp;nbsp; &amp;nbsp; &lt;br&gt;&amp;nbsp; (И/И)" style="text;html=1;strokeColor=none;fillColor=none;align=left;verticalAlign=middle;whiteSpace=wrap;rounded=0;fontSize=16;" parent="1" vertex="1">
          <mxGeometry x="120" y="608" width="230" height="30" as="geometry" />
        </mxCell>
        <mxCell id="eJI23vzdxuldbTUaO5t--17" value="&lt;font style=&quot;font-size: 10px;&quot;&gt;Пул&lt;/font&gt;" style="swimlane;startSize=20;horizontal=0;html=1;whiteSpace=wrap;fontSize=18;" parent="1" vertex="1">
          <mxGeometry x="20" y="80" width="100" height="80" as="geometry" />
        </mxCell>
        <mxCell id="eJI23vzdxuldbTUaO5t--22" value="&lt;font style=&quot;font-size: 8px;&quot;&gt;Дорожка&lt;/font&gt;" style="swimlane;html=1;startSize=20;fontStyle=0;collapsible=0;horizontal=0;swimlaneLine=1;swimlaneFillColor=#ffffff;strokeWidth=2;whiteSpace=wrap;fontSize=18;align=center;" parent="eJI23vzdxuldbTUaO5t--17" vertex="1">
          <mxGeometry x="20" width="80" height="40" as="geometry" />
        </mxCell>
        <mxCell id="eJI23vzdxuldbTUaO5t--24" value="&lt;font style=&quot;font-size: 8px;&quot;&gt;Дорожка&lt;/font&gt;" style="swimlane;html=1;startSize=20;fontStyle=0;collapsible=0;horizontal=0;swimlaneLine=1;swimlaneFillColor=#ffffff;strokeWidth=2;whiteSpace=wrap;fontSize=18;" parent="1" vertex="1">
          <mxGeometry x="40" y="120" width="80" height="40" as="geometry" />
        </mxCell>
      </root>
    </mxGraphModel>
  </diagram>
</mxfile>
